<svg width="23" height="23" viewBox="0 0 23 23" fill="none" xmlns="http://www.w3.org/2000/svg">
<path opacity="0.8" d="M21.223 3.01392C20.878 2.72136 20.3362 2.6795 19.7759 2.90444H19.775C19.1857 3.14088 3.09489 10.0427 2.43985 10.3247C2.32071 10.3661 1.28019 10.7543 1.38737 11.6191C1.48305 12.3988 2.31933 12.7218 2.42145 12.759L6.51223 14.1597C6.78363 15.0632 7.78413 18.3963 8.00539 19.1084C8.14339 19.5523 8.36833 20.1356 8.76255 20.2556C9.10847 20.389 9.45255 20.2671 9.67519 20.0923L12.1762 17.7726L16.2136 20.9213L16.3098 20.9788C16.5839 21.1002 16.8466 21.1609 17.0973 21.1609C17.2909 21.1609 17.4768 21.1246 17.6544 21.0519C18.2593 20.8035 18.5012 20.2271 18.5265 20.1618L21.5423 4.48638C21.7263 3.64918 21.4705 3.22322 21.223 3.01392ZM10.12 14.72L8.74001 18.4L7.36001 13.8L17.94 5.98L10.12 14.72Z" fill="white"/>
</svg>
