<svg width="23" height="23" viewBox="0 0 23 23" fill="none" xmlns="http://www.w3.org/2000/svg">
<g clip-path="url(#clip0_61_52)">
<path opacity="0.8" d="M11.4999 0.919983C5.6662 0.919983 0.919922 5.66626 0.919922 11.5C0.919922 17.3337 5.6662 22.08 11.4999 22.08C17.3341 22.08 22.0799 17.3337 22.0799 11.5C22.0799 5.66626 17.3341 0.919983 11.4999 0.919983ZM16.0875 13.5861C17.1165 14.4996 17.3304 14.8258 17.3654 14.8814C17.7918 15.5576 16.8925 15.64 16.8925 15.64H14.9973C14.9973 15.64 14.5359 15.645 14.1417 15.3838C13.4991 14.9629 12.8261 14.1468 12.3532 14.2885C11.9562 14.4072 11.9599 14.9435 11.9599 15.4022C11.9599 15.5664 11.8187 15.64 11.4999 15.64C11.1811 15.64 11.0487 15.64 10.9074 15.64C9.86922 15.64 8.74268 15.2904 7.6189 14.116C6.02914 12.4559 4.63488 9.11166 4.63488 9.11166C4.63488 9.11166 4.55254 8.9433 4.64224 8.84072C4.7439 8.72572 5.02036 8.74044 5.02036 8.74044L6.85806 8.73998C6.85806 8.73998 7.03102 8.77264 7.15522 8.86004C7.2578 8.9318 7.31484 9.06888 7.31484 9.06888C7.31484 9.06888 7.6235 10.0882 8.0168 10.7382C8.785 12.0069 9.14242 12.0391 9.40324 11.9025C9.78412 11.7047 9.65992 10.356 9.65992 10.356C9.65992 10.356 9.67694 9.77682 9.47822 9.51876C9.32504 9.31912 9.03202 9.21286 8.90414 9.1963C8.80064 9.18296 8.9736 9.00172 9.19394 8.89822C9.48834 8.76712 9.889 8.73354 10.5799 8.73998C11.1177 8.74504 11.2727 8.77724 11.4824 8.82554C12.1168 8.97182 11.9599 9.35776 11.9599 10.7129C11.9599 11.1472 11.9001 11.7576 12.2276 11.96C12.3689 12.0474 12.8528 12.1541 13.7139 10.7557C14.1228 10.0924 14.4481 8.99206 14.4481 8.99206C14.4481 8.99206 14.5152 8.87108 14.6196 8.81128C14.7264 8.7501 14.7231 8.75148 14.8694 8.75148C15.0157 8.75148 16.4826 8.73998 16.8046 8.73998C17.1262 8.73998 17.4279 8.7363 17.4799 8.9249C17.5544 9.19584 17.2426 10.1241 16.4523 11.1315C15.1537 12.7848 15.0097 12.6302 16.0875 13.5861Z" fill="white"/>
</g>
<defs>
<clipPath id="clip0_61_52">
<rect width="23" height="23" fill="white"/>
</clipPath>
</defs>
</svg>
