<svg width="23" height="23" viewBox="0 0 23 23" fill="none" xmlns="http://www.w3.org/2000/svg">
<g clip-path="url(#clip0_61_57)">
<path opacity="0.8" d="M11.5 0.919998C5.66627 0.919998 0.91999 5.66628 0.91999 11.5C0.91999 13.3216 1.39057 15.1128 2.28297 16.6934L0.93701 21.4958C0.89285 21.6536 0.93563 21.8229 1.04971 21.9402C1.13757 22.0308 1.25717 22.08 1.37999 22.08C1.41679 22.08 1.45405 22.0754 1.49039 22.0667L6.50255 20.8251C8.03297 21.6467 9.75659 22.08 11.5 22.08C17.3337 22.08 22.08 17.3337 22.08 11.5C22.08 5.66628 17.3337 0.919998 11.5 0.919998ZM16.8222 15.2334C16.5959 15.8599 15.5103 16.4317 14.9886 16.5085C14.5204 16.577 13.9279 16.6065 13.2774 16.4022C12.8832 16.278 12.3772 16.1133 11.7291 15.8369C9.00449 14.6749 7.22521 11.966 7.08905 11.787C6.95335 11.6081 5.97999 10.333 5.97999 9.01324C5.97999 7.6935 6.68149 7.04444 6.93081 6.7758C7.18013 6.50716 7.47407 6.44 7.65531 6.44C7.83655 6.44 8.01733 6.4423 8.17603 6.44966C8.34301 6.45794 8.56703 6.38664 8.78737 6.91012C9.01369 7.4474 9.55695 8.76714 9.62411 8.90192C9.69219 9.03624 9.73727 9.1931 9.64711 9.37204C9.55695 9.55098 9.51187 9.66276 9.37571 9.81962C9.23955 9.97648 9.09051 10.1692 8.96815 10.2897C8.83199 10.4236 8.69077 10.5685 8.84901 10.8371C9.00725 11.1058 9.55235 11.9839 10.3601 12.6951C11.3974 13.6086 12.2728 13.892 12.5442 14.0263C12.8156 14.1606 12.9743 14.1381 13.1325 13.9592C13.2908 13.7798 13.8115 13.1758 13.9923 12.9076C14.173 12.6394 14.3543 12.6836 14.6036 12.7733C14.8529 12.8625 16.1883 13.5111 16.4597 13.6454C16.7311 13.7798 16.9124 13.8469 16.9804 13.9587C17.0485 14.07 17.0485 14.6073 16.8222 15.2334Z" fill="white"/>
</g>
<defs>
<clipPath id="clip0_61_57">
<rect width="23" height="23" fill="white"/>
</clipPath>
</defs>
</svg>
