<svg width="23" height="23" viewBox="0 0 23 23" fill="none" xmlns="http://www.w3.org/2000/svg">
<path opacity="0.8" d="M20.8067 6.36333C20.6234 5.35169 19.7502 4.61497 18.7367 4.38497C17.2202 4.06333 14.4134 3.83333 11.3767 3.83333C8.34181 3.83333 5.49017 4.06333 3.97181 4.38497C2.96017 4.61497 2.08509 5.30497 1.90181 6.36333C1.71673 7.51333 1.53345 9.12333 1.53345 11.1933C1.53345 13.2633 1.71673 14.8733 1.94673 16.0233C2.13181 17.035 3.00509 17.7717 4.01673 18.0017C5.62673 18.3233 8.38673 18.5533 11.4234 18.5533C14.4602 18.5533 17.2202 18.3233 18.8302 18.0017C19.8418 17.7717 20.7151 17.0817 20.9002 16.0233C21.0834 14.8733 21.3134 13.2166 21.3602 11.1933C21.2667 9.12333 21.0367 7.51333 20.8067 6.36333ZM8.89345 14.4133V7.97333L14.5051 11.1933L8.89345 14.4133Z" fill="white"/>
</svg>
