<svg width="111" height="28" viewBox="0 0 111 28" fill="none" xmlns="http://www.w3.org/2000/svg">
<path d="M13.338 17.082V20.616C13.338 22.7693 12.806 24.4287 11.742 25.594C10.7033 26.734 9.158 27.304 7.106 27.304C5.054 27.304 3.496 26.734 2.432 25.594C1.39333 24.4287 0.874 22.7693 0.874 20.616V6.784C0.874 4.63067 1.39333 2.984 2.432 1.844C3.496 0.678666 5.054 0.0959998 7.106 0.0959998C9.158 0.0959998 10.7033 0.678666 11.742 1.844C12.806 2.984 13.338 4.63067 13.338 6.784V9.368H9.386V6.518C9.386 5.55533 9.18333 4.884 8.778 4.504C8.398 4.09867 7.87867 3.896 7.22 3.896C6.56133 3.896 6.02933 4.09867 5.624 4.504C5.244 4.884 5.054 5.55533 5.054 6.518V20.882C5.054 21.8447 5.244 22.516 5.624 22.896C6.02933 23.276 6.56133 23.466 7.22 23.466C7.87867 23.466 8.398 23.276 8.778 22.896C9.18333 22.516 9.386 21.8447 9.386 20.882V17.082H13.338ZM14.9747 6.784C14.9747 4.63067 15.4813 2.984 16.4947 1.844C17.5333 0.678666 19.0787 0.0959998 21.1307 0.0959998C23.1827 0.0959998 24.7153 0.678666 25.7287 1.844C26.7673 2.984 27.2867 4.63067 27.2867 6.784V7.81H23.3347V6.518C23.3347 5.55533 23.1447 4.884 22.7647 4.504C22.41 4.09867 21.9033 3.896 21.2447 3.896C20.586 3.896 20.0667 4.09867 19.6867 4.504C19.332 4.884 19.1547 5.55533 19.1547 6.518C19.1547 7.43 19.3573 8.24067 19.7627 8.95C20.168 9.634 20.6747 10.2927 21.2827 10.926C21.8907 11.534 22.5367 12.1547 23.2207 12.788C23.93 13.396 24.5887 14.0673 25.1967 14.802C25.8047 15.5367 26.3113 16.3727 26.7167 17.31C27.122 18.2473 27.3247 19.3493 27.3247 20.616C27.3247 22.7693 26.7927 24.4287 25.7287 25.594C24.69 26.734 23.1447 27.304 21.0927 27.304C19.0407 27.304 17.4827 26.734 16.4187 25.594C15.38 24.4287 14.8607 22.7693 14.8607 20.616V18.792H18.8127V20.882C18.8127 21.8447 19.0027 22.516 19.3827 22.896C19.788 23.276 20.32 23.466 20.9787 23.466C21.6373 23.466 22.1567 23.276 22.5367 22.896C22.942 22.516 23.1447 21.8447 23.1447 20.882C23.1447 19.97 22.942 19.172 22.5367 18.488C22.1313 17.7787 21.6247 17.12 21.0167 16.512C20.4087 15.8787 19.75 15.258 19.0407 14.65C18.3567 14.0167 17.7107 13.3327 17.1027 12.598C16.4947 11.8633 15.988 11.0273 15.5827 10.09C15.1773 9.15267 14.9747 8.05067 14.9747 6.784ZM33.0707 22.972V27H29.0427V22.972H33.0707ZM48.1876 6.784C48.1876 4.63067 48.6942 2.984 49.7076 1.844C50.7462 0.678666 52.2916 0.0959998 54.3436 0.0959998C56.3956 0.0959998 57.9282 0.678666 58.9416 1.844C59.9802 2.984 60.4996 4.63067 60.4996 6.784V7.81H56.5476V6.518C56.5476 5.55533 56.3576 4.884 55.9776 4.504C55.6229 4.09867 55.1162 3.896 54.4576 3.896C53.7989 3.896 53.2796 4.09867 52.8996 4.504C52.5449 4.884 52.3676 5.55533 52.3676 6.518C52.3676 7.43 52.5702 8.24067 52.9756 8.95C53.3809 9.634 53.8876 10.2927 54.4956 10.926C55.1036 11.534 55.7496 12.1547 56.4336 12.788C57.1429 13.396 57.8016 14.0673 58.4096 14.802C59.0176 15.5367 59.5242 16.3727 59.9296 17.31C60.3349 18.2473 60.5376 19.3493 60.5376 20.616C60.5376 22.7693 60.0056 24.4287 58.9416 25.594C57.9029 26.734 56.3576 27.304 54.3056 27.304C52.2536 27.304 50.6956 26.734 49.6316 25.594C48.5929 24.4287 48.0736 22.7693 48.0736 20.616V18.792H52.0256V20.882C52.0256 21.8447 52.2156 22.516 52.5956 22.896C53.0009 23.276 53.5329 23.466 54.1916 23.466C54.8502 23.466 55.3696 23.276 55.7496 22.896C56.1549 22.516 56.3576 21.8447 56.3576 20.882C56.3576 19.97 56.1549 19.172 55.7496 18.488C55.3442 17.7787 54.8376 17.12 54.2296 16.512C53.6216 15.8787 52.9629 15.258 52.2536 14.65C51.5696 14.0167 50.9236 13.3327 50.3156 12.598C49.7076 11.8633 49.2009 11.0273 48.7956 10.09C48.3902 9.15267 48.1876 8.05067 48.1876 6.784ZM72.2116 12.826L70.6916 27H64.9536L61.9896 0.399998H66.0556L68.2976 21.376L70.3116 0.399998H74.3396L76.4296 21.528L78.5956 0.399998H82.2436L79.2796 27H73.7316L72.2116 12.826ZM96.284 27H92.066L91.344 22.174H86.214L85.492 27H81.654L85.91 0.399998H92.028L96.284 27ZM86.746 18.564H90.774L88.76 5.112L86.746 18.564ZM103.961 0.399998C106.064 0.399998 107.622 0.957332 108.635 2.072C109.674 3.18667 110.193 4.82067 110.193 6.974V10.432C110.193 12.5853 109.674 14.2193 108.635 15.334C107.622 16.4487 106.064 17.006 103.961 17.006H101.985V27H97.8055V0.399998H103.961ZM101.985 4.2V13.206H103.961C104.62 13.206 105.127 13.0287 105.481 12.674C105.836 12.3193 106.013 11.6607 106.013 10.698V6.708C106.013 5.74533 105.836 5.08667 105.481 4.732C105.127 4.37733 104.62 4.2 103.961 4.2H101.985Z" fill="white"/>
<path d="M39.3086 11.61H45.0466V15.41H39.3086V23.2H46.5286V27H35.1286V0.399998H46.5286V4.2H39.3086V11.61Z" fill="#DE4949"/>
</svg>
