<svg width="263" height="35" viewBox="0 0 263 35" fill="none" xmlns="http://www.w3.org/2000/svg">
<path d="M15.848 21.472V25.936C15.848 28.656 15.176 30.752 13.832 32.224C12.52 33.664 10.568 34.384 7.976 34.384C5.384 34.384 3.416 33.664 2.072 32.224C0.76 30.752 0.104 28.656 0.104 25.936V8.464C0.104 5.744 0.76 3.664 2.072 2.224C3.416 0.751999 5.384 0.0159998 7.976 0.0159998C10.568 0.0159998 12.52 0.751999 13.832 2.224C15.176 3.664 15.848 5.744 15.848 8.464V11.728H10.856V8.128C10.856 6.912 10.6 6.064 10.088 5.584C9.608 5.072 8.952 4.816 8.12 4.816C7.288 4.816 6.616 5.072 6.104 5.584C5.624 6.064 5.384 6.912 5.384 8.128V26.272C5.384 27.488 5.624 28.336 6.104 28.816C6.616 29.296 7.288 29.536 8.12 29.536C8.952 29.536 9.608 29.296 10.088 28.816C10.6 28.336 10.856 27.488 10.856 26.272V21.472H15.848ZM17.9154 8.464C17.9154 5.744 18.5554 3.664 19.8354 2.224C21.1474 0.751999 23.0994 0.0159998 25.6914 0.0159998C28.2834 0.0159998 30.2194 0.751999 31.4994 2.224C32.8114 3.664 33.4674 5.744 33.4674 8.464V9.76H28.4754V8.128C28.4754 6.912 28.2354 6.064 27.7554 5.584C27.3074 5.072 26.6674 4.816 25.8354 4.816C25.0034 4.816 24.3474 5.072 23.8674 5.584C23.4194 6.064 23.1954 6.912 23.1954 8.128C23.1954 9.28 23.4514 10.304 23.9634 11.2C24.4754 12.064 25.1154 12.896 25.8834 13.696C26.6514 14.464 27.4674 15.248 28.3314 16.048C29.2274 16.816 30.0594 17.664 30.8274 18.592C31.5954 19.52 32.2354 20.576 32.7474 21.76C33.2594 22.944 33.5154 24.336 33.5154 25.936C33.5154 28.656 32.8434 30.752 31.4994 32.224C30.1874 33.664 28.2354 34.384 25.6434 34.384C23.0514 34.384 21.0834 33.664 19.7394 32.224C18.4274 30.752 17.7714 28.656 17.7714 25.936V23.632H22.7634V26.272C22.7634 27.488 23.0034 28.336 23.4834 28.816C23.9954 29.296 24.6674 29.536 25.4994 29.536C26.3314 29.536 26.9874 29.296 27.4674 28.816C27.9794 28.336 28.2354 27.488 28.2354 26.272C28.2354 25.12 27.9794 24.112 27.4674 23.248C26.9554 22.352 26.3154 21.52 25.5474 20.752C24.7794 19.952 23.9474 19.168 23.0514 18.4C22.1874 17.6 21.3714 16.736 20.6034 15.808C19.8354 14.88 19.1954 13.824 18.6834 12.64C18.1714 11.456 17.9154 10.064 17.9154 8.464ZM40.7735 28.912V34H35.6855V28.912H40.7735ZM183.712 8.464C183.712 5.744 184.352 3.664 185.632 2.224C186.944 0.751999 188.896 0.0159998 191.488 0.0159998C194.08 0.0159998 196.016 0.751999 197.296 2.224C198.608 3.664 199.264 5.744 199.264 8.464V9.76H194.272V8.128C194.272 6.912 194.032 6.064 193.552 5.584C193.104 5.072 192.464 4.816 191.632 4.816C190.8 4.816 190.144 5.072 189.664 5.584C189.216 6.064 188.992 6.912 188.992 8.128C188.992 9.28 189.248 10.304 189.76 11.2C190.272 12.064 190.912 12.896 191.68 13.696C192.448 14.464 193.264 15.248 194.128 16.048C195.024 16.816 195.856 17.664 196.624 18.592C197.392 19.52 198.032 20.576 198.544 21.76C199.056 22.944 199.312 24.336 199.312 25.936C199.312 28.656 198.64 30.752 197.296 32.224C195.984 33.664 194.032 34.384 191.44 34.384C188.848 34.384 186.88 33.664 185.536 32.224C184.224 30.752 183.568 28.656 183.568 25.936V23.632H188.56V26.272C188.56 27.488 188.8 28.336 189.28 28.816C189.792 29.296 190.464 29.536 191.296 29.536C192.128 29.536 192.784 29.296 193.264 28.816C193.776 28.336 194.032 27.488 194.032 26.272C194.032 25.12 193.776 24.112 193.264 23.248C192.752 22.352 192.112 21.52 191.344 20.752C190.576 19.952 189.744 19.168 188.848 18.4C187.984 17.6 187.168 16.736 186.4 15.808C185.632 14.88 184.992 13.824 184.48 12.64C183.968 11.456 183.712 10.064 183.712 8.464ZM214.058 16.096L212.138 34H204.89L201.146 0.399998H206.282L209.114 26.896L211.658 0.399998H216.746L219.386 27.088L222.122 0.399998H226.73L222.986 34H215.978L214.058 16.096ZM244.466 34H239.138L238.226 27.904H231.746L230.834 34H225.986L231.362 0.399998H239.09L244.466 34ZM232.418 23.344H237.506L234.962 6.352L232.418 23.344ZM254.164 0.399998C256.82 0.399998 258.788 1.104 260.068 2.512C261.38 3.92 262.036 5.984 262.036 8.704V13.072C262.036 15.792 261.38 17.856 260.068 19.264C258.788 20.672 256.82 21.376 254.164 21.376H251.668V34H246.388V0.399998H254.164ZM251.668 5.2V16.576H254.164C254.996 16.576 255.636 16.352 256.084 15.904C256.532 15.456 256.756 14.624 256.756 13.408V8.368C256.756 7.152 256.532 6.32 256.084 5.872C255.636 5.424 254.996 5.2 254.164 5.2H251.668Z" fill="#DE4949"/>
<path d="M48.653 14.56H55.901V19.36H48.653V29.2H57.773V34H43.373V0.399998H57.773V5.2H48.653V14.56ZM75.6605 21.472V25.936C75.6605 28.656 74.9885 30.752 73.6445 32.224C72.3325 33.664 70.3805 34.384 67.7885 34.384C65.1965 34.384 63.2285 33.664 61.8845 32.224C60.5725 30.752 59.9165 28.656 59.9165 25.936V8.464C59.9165 5.744 60.5725 3.664 61.8845 2.224C63.2285 0.751999 65.1965 0.0159998 67.7885 0.0159998C70.3805 0.0159998 72.3325 0.751999 73.6445 2.224C74.9885 3.664 75.6605 5.744 75.6605 8.464V11.728H70.6685V8.128C70.6685 6.912 70.4125 6.064 69.9005 5.584C69.4205 5.072 68.7645 4.816 67.9325 4.816C67.1005 4.816 66.4285 5.072 65.9165 5.584C65.4365 6.064 65.1965 6.912 65.1965 8.128V26.272C65.1965 27.488 65.4365 28.336 65.9165 28.816C66.4285 29.296 67.1005 29.536 67.9325 29.536C68.7645 29.536 69.4205 29.296 69.9005 28.816C70.4125 28.336 70.6685 27.488 70.6685 26.272V21.472H75.6605ZM83.0079 26.272C83.0079 27.488 83.2479 28.352 83.7279 28.864C84.2399 29.344 84.9119 29.584 85.7439 29.584C86.5759 29.584 87.2319 29.344 87.7119 28.864C88.2239 28.352 88.4799 27.488 88.4799 26.272V8.128C88.4799 6.912 88.2239 6.064 87.7119 5.584C87.2319 5.072 86.5759 4.816 85.7439 4.816C84.9119 4.816 84.2399 5.072 83.7279 5.584C83.2479 6.064 83.0079 6.912 83.0079 8.128V26.272ZM77.7279 8.464C77.7279 5.744 78.4159 3.664 79.7919 2.224C81.1679 0.751999 83.1519 0.0159998 85.7439 0.0159998C88.3359 0.0159998 90.3199 0.751999 91.6959 2.224C93.0719 3.664 93.7599 5.744 93.7599 8.464V25.936C93.7599 28.656 93.0719 30.752 91.6959 32.224C90.3199 33.664 88.3359 34.384 85.7439 34.384C83.1519 34.384 81.1679 33.664 79.7919 32.224C78.4159 30.752 77.7279 28.656 77.7279 25.936V8.464ZM100.811 9.664V34H96.0594V0.399998H102.683L108.107 20.512V0.399998H112.811V34H107.387L100.811 9.664ZM120.414 26.272C120.414 27.488 120.654 28.352 121.134 28.864C121.646 29.344 122.318 29.584 123.15 29.584C123.982 29.584 124.638 29.344 125.118 28.864C125.63 28.352 125.886 27.488 125.886 26.272V8.128C125.886 6.912 125.63 6.064 125.118 5.584C124.638 5.072 123.982 4.816 123.15 4.816C122.318 4.816 121.646 5.072 121.134 5.584C120.654 6.064 120.414 6.912 120.414 8.128V26.272ZM115.134 8.464C115.134 5.744 115.822 3.664 117.198 2.224C118.574 0.751999 120.558 0.0159998 123.15 0.0159998C125.742 0.0159998 127.726 0.751999 129.102 2.224C130.478 3.664 131.166 5.744 131.166 8.464V25.936C131.166 28.656 130.478 30.752 129.102 32.224C127.726 33.664 125.742 34.384 123.15 34.384C120.558 34.384 118.574 33.664 117.198 32.224C115.822 30.752 115.134 28.656 115.134 25.936V8.464ZM144.746 24.256L148.346 0.399998H155.69V34H150.698V9.904L147.05 34H142.058L138.122 10.24V34H133.514V0.399998H140.858L144.746 24.256ZM158.17 0.399998H163.45V34H158.17V0.399998ZM181.645 21.472V25.936C181.645 28.656 180.973 30.752 179.629 32.224C178.317 33.664 176.365 34.384 173.773 34.384C171.181 34.384 169.213 33.664 167.869 32.224C166.557 30.752 165.901 28.656 165.901 25.936V8.464C165.901 5.744 166.557 3.664 167.869 2.224C169.213 0.751999 171.181 0.0159998 173.773 0.0159998C176.365 0.0159998 178.317 0.751999 179.629 2.224C180.973 3.664 181.645 5.744 181.645 8.464V11.728H176.653V8.128C176.653 6.912 176.397 6.064 175.885 5.584C175.405 5.072 174.749 4.816 173.917 4.816C173.085 4.816 172.413 5.072 171.901 5.584C171.421 6.064 171.181 6.912 171.181 8.128V26.272C171.181 27.488 171.421 28.336 171.901 28.816C172.413 29.296 173.085 29.536 173.917 29.536C174.749 29.536 175.405 29.296 175.885 28.816C176.397 28.336 176.653 27.488 176.653 26.272V21.472H181.645Z" fill="white"/>
</svg>
