<svg width="61" height="55" viewBox="0 0 61 55" fill="none" xmlns="http://www.w3.org/2000/svg">
<path fill-rule="evenodd" clip-rule="evenodd" d="M59.8704 25.3846C59.2457 25.3846 58.7407 25.8585 58.7407 26.4423C58.7407 30.1654 55.7879 33.2454 51.963 33.7615V20.0962C51.963 9.01471 42.3351 0 30.5 0C18.6649 0 9.03704 9.01471 9.03704 20.0962V33.7615C5.21211 33.2454 2.25926 30.1654 2.25926 26.4423C2.25926 25.8585 1.75431 25.3846 1.12963 25.3846C0.504944 25.3846 0 25.8585 0 26.4423C0 31.6906 4.56032 35.9615 10.1667 35.9615H50.8333C56.4397 35.9615 61 31.6906 61 26.4423C61 25.8585 60.4951 25.3846 59.8704 25.3846Z" fill="white"/>
<path fill-rule="evenodd" clip-rule="evenodd" d="M50.8334 46.5385H47.3541C46.8029 42.9561 43.5123 40.1924 39.5371 40.1924C35.5619 40.1924 32.2713 42.9561 31.7201 46.5385H29.2801C28.7288 42.9561 25.4382 40.1924 21.463 40.1924C17.4879 40.1924 14.1973 42.9561 13.646 46.5385H10.1667C9.54205 46.5385 9.03711 47.0124 9.03711 47.5962C9.03711 48.1801 9.54205 48.6539 10.1667 48.6539H13.646C14.1973 52.2363 17.4879 55.0001 21.463 55.0001C25.4382 55.0001 28.7288 52.2363 29.2801 48.6539H31.7201C32.2713 52.2363 35.5619 55.0001 39.5371 55.0001C43.5123 55.0001 46.8029 52.2363 47.3541 48.6539H50.8334C51.4581 48.6539 51.963 48.1801 51.963 47.5962C51.963 47.0124 51.4581 46.5385 50.8334 46.5385Z" fill="white"/>
</svg>
