<svg width="11" height="11" viewBox="0 0 11 11" fill="none" xmlns="http://www.w3.org/2000/svg">
<path d="M10.6979 9.2397L8.17426 6.71594C7.79824 7.30072 7.30062 7.79809 6.71582 8.17412L9.23963 10.6979C9.64254 11.1007 10.2958 11.1007 10.6978 10.6979C11.1008 10.2957 11.1008 9.64248 10.6979 9.2397Z" fill="white" fill-opacity="0.6"/>
<path d="M8.25011 4.12499C8.25011 1.84702 6.40314 0 4.12508 0C1.84706 0 0 1.84702 0 4.12499C0 6.40295 1.84706 8.24988 4.12508 8.24988C6.40314 8.24988 8.25011 6.40295 8.25011 4.12499ZM4.12508 7.2186C2.41905 7.2186 1.0313 5.831 1.0313 4.12501C1.0313 2.41902 2.41905 1.0313 4.12508 1.0313C5.83106 1.0313 7.21893 2.41902 7.21893 4.12501C7.21893 5.831 5.83106 7.2186 4.12508 7.2186Z" fill="white" fill-opacity="0.6"/>
<path d="M1.71875 4.12496H2.40618C2.40618 3.17727 3.1773 2.40623 4.12499 2.40623V1.71875C2.79836 1.71875 1.71875 2.79834 1.71875 4.12496Z" fill="white" fill-opacity="0.6"/>
</svg>
