<svg width="15" height="15" viewBox="0 0 15 15" fill="none" xmlns="http://www.w3.org/2000/svg">
<g clip-path="url(#clip0_79_1184)">
<path d="M14.8147 0.810237C14.6911 0.686687 14.5445 0.624707 14.3752 0.624707C14.206 0.624707 14.0596 0.686687 13.9358 0.810237L12.6663 2.07019C11.9697 1.41256 11.1721 0.903001 10.2737 0.541759C9.37542 0.180482 8.45068 -0.00012207 7.50012 -0.00012207C5.70968 -0.00012207 4.14725 0.541793 2.81256 1.62586C1.47784 2.7098 0.598969 4.12405 0.175781 5.86897V5.93727C0.175781 6.0219 0.206669 6.0952 0.268546 6.15698C0.330423 6.21885 0.403623 6.24974 0.488246 6.24974H2.43158C2.57487 6.24974 2.67246 6.17483 2.72459 6.02518C2.99799 5.37419 3.17045 4.99334 3.24215 4.88262C3.69783 4.14043 4.3033 3.55771 5.05855 3.13452C5.81387 2.71137 6.62765 2.49971 7.49998 2.49971C8.80871 2.49971 9.94474 2.94571 10.9084 3.83765L9.56047 5.18524C9.4371 5.30896 9.37505 5.45553 9.37505 5.62481C9.37505 5.79406 9.43706 5.94056 9.56047 6.06424C9.68433 6.18797 9.83087 6.24977 10.0001 6.24977H14.3752C14.5445 6.24977 14.691 6.18797 14.8147 6.06424C14.9383 5.94056 15.0001 5.79409 15.0001 5.62481V1.24971C15.0001 1.08042 14.9386 0.933991 14.8147 0.810237Z" fill="white"/>
<path d="M14.4433 8.75004H12.5683C12.425 8.75004 12.3274 8.82485 12.2754 8.97464C12.0021 9.6257 11.8294 10.0064 11.7579 10.1171C11.3021 10.8591 10.6966 11.442 9.94155 11.8652C9.1862 12.2885 8.37242 12.4999 7.50005 12.4999C6.86859 12.4999 6.2598 12.3828 5.67393 12.1485C5.088 11.9139 4.56384 11.5818 4.10166 11.1521L5.43959 9.81427C5.56325 9.69069 5.62512 9.54402 5.62512 9.37484C5.62512 9.20559 5.56325 9.05892 5.43959 8.9354C5.31587 8.81158 5.16944 8.74963 5.00016 8.74963H0.625067C0.455682 8.74963 0.309181 8.81158 0.185495 8.9354C0.0618089 9.05895 0 9.20562 0 9.37487V13.75C0 13.9191 0.0618089 14.0658 0.185529 14.1894C0.309318 14.3129 0.455819 14.3751 0.625101 14.3751C0.794349 14.3751 0.940782 14.3129 1.06454 14.1894L2.32428 12.9295C3.02094 13.5935 3.81365 14.1047 4.70233 14.4627C5.59102 14.8209 6.51063 14.9998 7.46109 14.9998C9.24507 14.9998 10.801 14.4578 12.1291 13.3739C13.4572 12.29 14.3296 10.8754 14.7465 9.13068C14.753 9.11768 14.7561 9.09487 14.7561 9.06244C14.7561 8.97768 14.7251 8.90469 14.6632 8.8426C14.6013 8.78107 14.528 8.75004 14.4433 8.75004Z" fill="white"/>
</g>
<defs>
<clipPath id="clip0_79_1184">
<rect width="15" height="15" fill="white"/>
</clipPath>
</defs>
</svg>
