<svg width="24" height="24" viewBox="0 0 24 24" fill="none" xmlns="http://www.w3.org/2000/svg">
<path d="M21 8.00013H18.535L14.835 2.44513C14.6878 2.22447 14.459 2.07132 14.1989 2.01937C13.9388 1.96742 13.6687 2.02093 13.448 2.16813C13.2273 2.31532 13.0742 2.54415 13.0222 2.80426C12.9703 3.06437 13.0238 3.33447 13.171 3.55513L16.132 8.00013H5.868L8.832 3.55513C8.97919 3.33447 9.0327 3.06437 8.98076 2.80426C8.92881 2.54415 8.77566 2.31532 8.555 2.16813C8.33434 2.02093 8.06424 1.96742 7.80413 2.01937C7.54402 2.07132 7.3152 2.22447 7.168 2.44513L3.465 8.00013H1C0.734784 8.00013 0.48043 8.10549 0.292893 8.29302C0.105357 8.48056 0 8.73491 0 9.00013C0 9.26534 0.105357 9.5197 0.292893 9.70723C0.48043 9.89477 0.734784 10.0001 1 10.0001H2V18.0001C2 18.7958 2.31607 19.5588 2.87868 20.1214C3.44129 20.6841 4.20435 21.0001 5 21.0001H17C17.7956 21.0001 18.5587 20.6841 19.1213 20.1214C19.6839 19.5588 20 18.7958 20 18.0001V10.0001H21C21.2652 10.0001 21.5196 9.89477 21.7071 9.70723C21.8946 9.5197 22 9.26534 22 9.00013C22 8.73491 21.8946 8.48056 21.7071 8.29302C21.5196 8.10549 21.2652 8.00013 21 8.00013ZM18 18.0001C18 18.2653 17.8946 18.5197 17.7071 18.7072C17.5196 18.8948 17.2652 19.0001 17 19.0001H5C4.73478 19.0001 4.48043 18.8948 4.29289 18.7072C4.10536 18.5197 4 18.2653 4 18.0001V10.0001H18V18.0001ZM6 16.5001V12.5001C6 12.2349 6.10536 11.9806 6.29289 11.793C6.48043 11.6055 6.73478 11.5001 7 11.5001C7.26522 11.5001 7.51957 11.6055 7.70711 11.793C7.89464 11.9806 8 12.2349 8 12.5001V16.5001C8 16.7653 7.89464 17.0197 7.70711 17.2072C7.51957 17.3948 7.26522 17.5001 7 17.5001C6.73478 17.5001 6.48043 17.3948 6.29289 17.2072C6.10536 17.0197 6 16.7653 6 16.5001ZM10 16.5001V12.5001C10 12.2349 10.1054 11.9806 10.2929 11.793C10.4804 11.6055 10.7348 11.5001 11 11.5001C11.2652 11.5001 11.5196 11.6055 11.7071 11.793C11.8946 11.9806 12 12.2349 12 12.5001V16.5001C12 16.7653 11.8946 17.0197 11.7071 17.2072C11.5196 17.3948 11.2652 17.5001 11 17.5001C10.7348 17.5001 10.4804 17.3948 10.2929 17.2072C10.1054 17.0197 10 16.7653 10 16.5001ZM14 16.5001V12.5001C14 12.2349 14.1054 11.9806 14.2929 11.793C14.4804 11.6055 14.7348 11.5001 15 11.5001C15.2652 11.5001 15.5196 11.6055 15.7071 11.793C15.8946 11.9806 16 12.2349 16 12.5001V16.5001C16 16.7653 15.8946 17.0197 15.7071 17.2072C15.5196 17.3948 15.2652 17.5001 15 17.5001C14.7348 17.5001 14.4804 17.3948 14.2929 17.2072C14.1054 17.0197 14 16.7653 14 16.5001Z" fill="#FBFBFB"/>
</svg>
